# xmcd
#
# Track frame offsets:
#	150
#	18825
#	42240
#	62100
#	82757
#	106477
#	133577
#	154512
#	172052
#	192842
#	212535
#	245170
#
# Disc length: 4440 seconds
#
# Revision: 4
# Processed by: cddbd v1.5.1PL2 Copyright (c) Steve Scherf et al.
# Submitted via: audiograbber 1.83.01
#
DISCID=9a11560c
DTITLE=move - REWIND ~singles collection+~  [CD2]
DYEAR=2004
DGENRE=JPop
TTITLE0=ROCK IT DOWN (Radio edit)
TTITLE1=around the world
TTITLE2=over drive
TTITLE3=Rage your dream
TTITLE4=platinum
TTITLE5=majestic flight [from the album "worlds of the mind"]
TTITLE6=BREAK IN2 THE NITE
TTITLE7=i WAKE YOUR LOVE!
TTITLE8=FUTURE BREEZE
TTITLE9=BURNING DANCE
TTITLE10=T.R.A.P. [from the single "i WAKE YOUR LOVE!"]
TTITLE11=@
EXTD=YEAR: 2004
EXTT0=
EXTT1=
EXTT2=
EXTT3=
EXTT4=
EXTT5=
EXTT6=
EXTT7=
EXTT8=
EXTT9=
EXTT10=
EXTT11=
PLAYORDER=
